<svg width="980" height="340" viewBox="0 0 980 340" xmlns="http://www.w3.org/2000/svg">
  <style>
    .box { fill:#ffffff; stroke:#1f2937; stroke-width:2; rx:8; }
    .title { font: 600 14px sans-serif; fill:#111827; }
    .label { font: 12px sans-serif; fill:#374151; }
    .arrow { stroke:#374151; stroke-width:2; marker-end:url(#arrowhead); }
  </style>
  <defs>
    <marker id="arrowhead" markerWidth="8" markerHeight="6" refX="8" refY="3" orient="auto">
      <polygon points="0 0, 8 3, 0 6" fill="#374151" />
    </marker>
  </defs>

  <!-- Yahoo API -->
  <rect class="box" x="20" y="40" width="150" height="80" />
  <text class="title" x="45" y="65">Yahoo Finance</text>
  <text class="label" x="38" y="85">Tickers, Quotes, News</text>

  <!-- Kafka -->
  <rect class="box" x="210" y="40" width="140" height="80" />
  <text class="title" x="250" y="65">Kafka</text>
  <text class="label" x="228" y="85">Ingest Stream</text>

  <!-- Spark -->
  <rect class="box" x="380" y="30" width="170" height="100" />
  <text class="title" x="420" y="55">PySpark (Batch/RT)</text>
  <text class="label" x="408" y="75">Transform, Aggregate</text>

  <!-- S3 -->
  <rect class="box" x="580" y="30" width="140" height="100" />
  <text class="title" x="625" y="55">S3 Data Lake</text>
  <text class="label" x="605" y="75">Raw + Processed</text>

  <!-- dbt / marts -->
  <rect class="box" x="750" y="30" width="200" height="100" />
  <text class="title" x="770" y="55">dbt / Analytics Marts</text>
  <text class="label" x="770" y="75">Daily summaries, Top performers</text>

  <!-- EMR Note -->
  <rect class="box" x="430" y="160" width="240" height="80" />
  <text class="title" x="480" y="185">Optional: AWS EMR</text>
  <text class="label" x="450" y="205">Managed Spark Cluster & Steps</text>

  <!-- Arrows -->
  <line class="arrow" x1="170" y1="80" x2="210" y2="80" />
  <line class="arrow" x1="350" y1="80" x2="380" y2="80" />
  <line class="arrow" x1="550" y1="80" x2="580" y2="80" />
  <line class="arrow" x1="720" y1="80" x2="750" y2="80" />

  <!-- EMR arrows -->
  <line class="arrow" x1="515" y1="130" x2="550" y2="160" />
  <line class="arrow" x1="650" y1="130" x2="620" y2="160" />

  <!-- Footer note -->
  <text class="label" x="20" y="320">Infra: Terraform · CI: GitHub Actions (OIDC)</text>
</svg>

